Coordinates
version=1
nRows=7
nColumns=63
inDegrees=yes

Units are S.I. units (second, meters, Newtons, ...)
If the header above contains a line with 'inDegrees', this indicates whether rotational values are in degrees (yes) or radians (no).

endheader
time	pelvis_tilt	pelvis_list	pelvis_rotation	pelvis_tx	pelvis_ty	pelvis_tz	hip_flexion_r	hip_adduction_r	hip_rotation_r	knee_angle_r	knee_angle_r_beta	ankle_angle_r	subtalar_angle_r	mtp_angle_r	hip_flexion_l	hip_adduction_l	hip_rotation_l	knee_angle_l	knee_angle_l_beta	ankle_angle_l	subtalar_angle_l	mtp_angle_l	L5_S1_Flex_Ext	L5_S1_Lat_Bending	L5_S1_axial_rotation	L4_L5_Flex_Ext	L4_L5_Lat_Bending	L4_L5_axial_rotation	L3_L4_Flex_Ext	L3_L4_Lat_Bending	L3_L4_axial_rotation	L2_L3_Flex_Ext	L2_L3_Lat_Bending	L2_L3_axial_rotation	L1_L2_Flex_Ext	L1_L2_Lat_Bending	L1_L2_axial_rotation	L1_T12_Flex_Ext	L1_T12_Lat_Bending	L1_T12_axial_rotation	Abs_r3	Abs_r2	Abs_r1	Abs_t1	Abs_t2	neck_flexion	neck_bending	neck_rotation	arm_flex_r	arm_add_r	arm_rot_r	elbow_flex_r	pro_sup_r	wrist_flex_r	wrist_dev_r	arm_flex_l	arm_add_l	arm_rot_l	elbow_flex_l	pro_sup_l	wrist_flex_l	wrist_dev_l
      0.00000000	     -0.28493691	     -2.47412719	     93.64405645	      0.26148432	      0.98141528	      0.38668803	      3.25556580	      0.79018797	     -0.03119305	     10.68434988	      0.18647708	     31.62192076	    -10.97584468	      0.00000000	      2.24081078	     -0.71758267	      2.28529200	      7.32360638	      0.12782104	     35.73620013	     10.70919565	      0.00000000	      0.16589870	      0.22298931	     -1.26361918	      0.30809048	      0.29657578	     -1.34259538	      0.27255498	      0.54217621	     -1.34259538	      0.18960563	      0.54217621	     -1.10566679	      0.15405354	      0.45471980	     -1.02669059	      0.09479452	      0.34541044	     -0.94771439	      1.18499785	      2.52249968	     -7.02787081	      0.00000000	      0.00000000	     24.77773749	      4.05215548	      7.76045067	     13.53787107	     -4.22826899	     74.68211255	     32.74224884	      8.52554747	     -2.39334380	      7.41977363	     19.56701939	     -3.44965502	     77.19320169	     29.69609355	     84.71777396	     -6.79616261	    -12.04736271
      0.01785714	     -0.82765785	     -2.45356621	     92.17807588	      0.26353557	      0.98147832	      0.38640069	      2.88205020	      0.27353431	      0.66053059	     10.46568325	      0.18266063	     31.65282673	    -10.59070260	      0.00000000	      1.64209675	     -0.13364933	      3.15732637	      6.16155085	      0.10753935	     35.34440179	      9.12013151	      0.00000000	      0.13221728	      0.15143401	     -0.96072379	      0.24554071	      0.20140723	     -1.02076903	      0.21721977	      0.36819665	     -1.02076903	      0.15111113	      0.36819665	     -0.84063332	      0.12277696	      0.30880423	     -0.78058808	      0.07554895	      0.23457128	     -0.72054285	      0.94441480	      1.71305180	     -5.34325753	      0.00000000	      0.00000000	     24.55588511	      4.88963817	      7.64299439	     13.86300076	     -4.42085704	     72.62459066	     33.35374625	      9.01634259	     -3.25803462	      7.48966054	     18.95458712	     -3.55573252	     74.13629062	     30.07818218	     81.30770493	     -4.02084569	    -11.74385169
      0.03571429	     -1.17081954	     -2.38132717	     90.81788641	      0.26525553	      0.98139271	      0.38581801	      2.49146676	     -0.04908749	      1.57720124	     10.11337308	      0.17651166	     31.51923576	    -10.36744225	      0.00000000	      0.93401366	      0.30983287	      5.45128078	      5.02116449	      0.08763585	     34.50016865	      5.30899533	      0.00000000	      0.11236662	      0.10483251	     -0.64165549	      0.20867604	      0.13942724	     -0.68175896	      0.18460712	      0.25488977	     -0.68175896	      0.12842381	      0.25488977	     -0.56144855	      0.10434364	      0.21377446	     -0.52134508	      0.06420628	      0.16238556	     -0.48124162	      0.80262351	      1.18588634	     -3.56869533	      0.00000000	      0.00000000	     24.56221308	      5.07444587	      6.90522283	     13.70692537	     -4.56678845	     69.99886935	     33.84144496	     10.15335957	     -4.29488355	      8.15859513	     18.77058808	     -3.43839005	     73.32767007	     30.18170657	     78.44517495	     -2.33139680	    -11.05231695
      0.05357143	     -1.22998798	     -2.05809887	     89.66141904	      0.26679460	      0.98140908	      0.38424243	      1.72360147	     -0.06469582	      2.55995984	      9.51318961	      0.16603648	     31.24305843	    -10.29266319	      0.00000000	     -0.74230491	      0.60013729	     17.77640305	      2.66319942	      0.04648160	     30.24381268	    -12.02558161	      0.00000000	      0.08705466	      0.09054006	     -0.38326840	      0.16166921	      0.12041827	     -0.40722267	      0.14302210	      0.22013909	     -0.40722267	      0.09949477	      0.22013909	     -0.33535985	      0.08083896	      0.18462928	     -0.31140557	      0.04974303	      0.14024655	     -0.28745130	      0.62182273	      1.02420721	     -2.13162384	      0.00000000	      0.00000000	     24.45491108	      5.00043111	      6.26880637	     13.70696771	     -4.66994228	     69.32440164	     33.85955158	     11.18154265	     -4.50744998	      8.36521519	     18.97030364	     -3.25689493	     75.36400394	     29.91007741	     75.43532197	     -2.62370435	    -11.34960390
      0.07142857	     -1.28401748	     -1.90947670	     88.85404485	      0.26794013	      0.98115850	      0.38359995	      1.34205438	     -0.11375863	      3.26512683	      9.13920286	      0.15950918	     31.07758697	    -10.06741420	      0.00000000	     -1.17407557	      0.61407690	     17.88195126	      2.38138763	      0.04156305	     29.96452317	    -12.89777605	      0.00000000	      0.08013759	      0.07886575	     -0.19633118	      0.14882352	      0.10489145	     -0.20860188	      0.13165805	      0.19175419	     -0.20860188	      0.09158926	      0.19175419	     -0.17178978	      0.07441577	      0.16082304	     -0.15951908	      0.04579062	      0.12216305	     -0.14724839	      0.57241481	      0.89214516	     -1.09193513	      0.00000000	      0.00000000	     24.63270706	      4.61688598	      5.71025142	     13.91167771	     -4.66020049	     69.79665470	     33.73114093	     10.70232912	     -4.78487802	      8.46749539	     19.07188454	     -3.14459774	     76.30293309	     29.76594176	     74.88864724	     -2.48714951	    -10.96006117
      0.08928571	     -1.29241908	     -1.89107476	     88.59739420	      0.26827857	      0.98066987	      0.38290021	      1.06862861	     -0.13252466	      3.48561286	      8.71014234	      0.15202066	     30.97053493	     -9.82710914	      0.00000000	     -1.31504618	      0.59622987	     17.95155590	      2.38907718	      0.04169726	     29.97614606	    -13.04330274	      0.00000000	      0.10065264	      0.07759322	     -0.13497245	      0.18692201	      0.10319898	     -0.14340823	      0.16536222	      0.18866016	     -0.14340823	      0.11503590	      0.18866016	     -0.11810089	      0.09346604	      0.15822809	     -0.10966511	      0.05751292	      0.12019190	     -0.10122934	      0.71895171	      0.87775002	     -0.75067627	      0.00000000	      0.00000000	     24.89378123	      4.24333106	      5.67825701	     13.94824238	     -4.51343249	     70.18350155	     33.39929952	     10.72603470	     -4.84643071	      8.72014686	     18.96117650	     -3.03553699	     76.72622893	     29.55776748	     75.12465915	     -2.33116003	    -10.69451590
      0.10714286	     -1.16219093	     -1.61113098	     88.04274433	      0.26879122	      0.98052444	      0.38211761	      0.62083784	     -0.02808467	      4.13009722	      8.45130664	      0.14750313	     30.82898035	     -9.57972167	      0.00000000	     -1.87612637	      0.47236467	     18.02712522	      2.18730774	      0.03817572	     29.67612792	    -13.93189614	      0.00000000	      0.08194456	      0.09428212	     -0.00011707	      0.15217924	      0.12539523	     -0.00012439	      0.13462671	      0.22923756	     -0.00012439	      0.09365444	      0.22923756	     -0.00010244	      0.07609372	      0.19226011	     -0.00009512	      0.04682312	      0.14604301	     -0.00008780	      0.58532178	      1.06653825	     -0.00065111	      0.00000000	      0.00000000	     24.98377805	      3.47857082	      5.10212299	     14.16568000	     -4.64248094	     71.39317337	     33.24912894	     10.14308929	     -4.34701129	      8.89928919	     19.21968921	     -2.80726246	     78.04479543	     29.29251418	     76.16275160	     -2.32952179	    -10.40952081
